<svg xmlns="http://www.w3.org/2000/svg" height="24" viewBox="0 -960 960 960" width="24"><path d="M187.523-166.154q-25.768 0-43.569-17.8-17.8-17.801-17.8-43.738v-390.77q0-25.937 17.8-43.738 17.801-17.8 43.738-17.8h176v-52.352q0-25.956 17.801-43.725 17.8-17.77 43.578-17.77h109.858q25.778 0 43.578 17.801 17.801 17.8 17.801 43.738V-680h176q25.937 0 43.738 17.8 17.8 17.801 17.8 43.738v390.77q0 25.937-17.8 43.738-17.801 17.8-43.569 17.8H187.523ZM400.615-680h158.77v-52.308q0-9.231-7.693-16.923-7.692-7.692-16.923-7.692H425.231q-9.231 0-16.923 7.692-7.693 7.692-7.693 16.923V-680Zm396.308 298.154H556.808v27.192q0 13.193-8.885 22.077-8.884 8.885-22.077 8.885h-91.692q-13.193 0-21.885-8.885-8.692-8.884-8.692-22.077v-27.192h-240.5v154.154q0 9.231 7.692 16.923 7.692 7.692 16.923 7.692h584.616q9.231 0 16.923-7.692 7.692-7.692 7.692-16.923v-154.154ZM440.5-360.615h79.385V-440H440.5v79.385Zm-277.423-58.154h240.5v-27.77q0-12.668 8.692-21.526t21.885-8.858h91.692q13.193 0 22.077 8.858 8.885 8.858 8.885 21.526v27.77h240.115v-199.693q0-9.23-7.692-16.923-7.692-7.692-16.923-7.692H187.692q-9.231 0-16.923 7.692-7.692 7.693-7.692 16.923v199.693ZM480-400.5Z"/></svg>