<svg xmlns="http://www.w3.org/2000/svg" height="24" viewBox="0 -960 960 960" width="24"><path d="m423.077-379.692-99.403-99.788q-5.559-5.174-12.982-5.559-7.423-.384-13.423 5.616-6.384 6.384-6.384 13.423t6.208 12.863l104.484 104.483q9.01 9.577 21.444 9.577t21.941-9.577l216.615-216.615q5.231-5.231 5.615-12.654.385-7.423-5.615-13.808-6.385-6-13.423-6-7.039 0-12.907 5.869l-212.17 212.17Zm57.106 253.538q-73.397 0-138.067-27.886t-112.508-75.69q-47.838-47.805-75.646-112.288t-27.808-137.799q0-73.397 27.886-138.067t75.69-112.508q47.805-47.838 112.288-75.646t137.799-27.808q73.397 0 138.067 27.886t112.508 75.69q47.838 47.805 75.646 112.288t27.808 137.799q0 73.397-27.886 138.067t-75.69 112.508q-47.805 47.838-112.288 75.646t-137.799 27.808Zm-.208-36.923q132.294 0 224.621-92.301 92.327-92.302 92.327-224.597 0-132.294-92.301-224.621-92.302-92.327-224.597-92.327-132.294 0-224.621 92.301-92.327 92.302-92.327 224.597 0 132.294 92.301 224.621 92.302 92.327 224.597 92.327ZM480-480Z"/></svg>