<svg xmlns="http://www.w3.org/2000/svg" height="24" viewBox="0 -960 960 960" width="24"><path d="m480-453.538-208.731 208.73q-5.615 5.616-13.038 5.75-7.423.135-13.423-5.865-5.885-6-5.827-12.981.057-6.981 5.942-12.865L453.538-480 244.923-689.231q-5.115-5.115-5.5-12.481-.385-7.365 5.5-13.365t12.923-6.25q7.039-.25 13.423 5.75L480-506.462l209.115-209.115q5.231-5.231 12.654-5.365 7.423-.135 13.808 5.865 5.5 6 5.442 12.981-.057 6.981-5.942 12.865L506.462-480l208.615 209.231q5.115 5.115 5.5 12.481.385 7.365-5.5 13.365t-12.923 6.25q-7.039.25-13.039-6.135L480-453.538Z"/></svg>