<svg xmlns="http://www.w3.org/2000/svg" height="24" viewBox="0 -960 960 960" width="24"><path d="m193.077-246.461-55.649-204.127q-2.774-9.874 1.379-21.316 4.154-11.442 14.846-15.144l51.27-17.26v-172.615q0-25.938 17.8-43.738 17.801-17.801 43.738-17.801h136.616v-88.192q0-12.75 8.884-21.664 8.885-8.913 22.077-8.913h92.471q12.645 0 21.53 8.913 8.884 8.914 8.884 21.664v88.192h136.616q25.937 0 43.738 17.801 17.8 17.8 17.8 43.738v172.657l51.274 17.943q12.694 4.528 17.518 15.002 4.824 10.475 1.78 20.088l-58.726 204.772q-31.846-11.385-56.384-30.039-24.539-18.654-48.33-43.423-9.32-10.231-22.972-10.231-13.652 0-23.028 11-27.014 30.154-60.232 52.193-33.218 22.038-75.984 22.038-10.606 0-19.459-1-8.854-1-17.707-3.769-28.677-7.539-52.848-26.385-24.171-18.846-46.591-43.461-8.643-10.308-22.098-10.692-13.455-.385-22.098 9.923-22.808 25.396-48.731 43.928-25.923 18.533-57.384 29.918ZM480-86.154q-40.385 0-80.885-10-40.5-10-77.884-30-37.385 20-77.109 30-39.725 10-81.436 10h-39.724q-7.808 0-13.231-5.423t-5.423-13.038q0-7.616 5.423-13.039t13.231-5.423h39.729q37.295 0 73.437-10.769 36.141-10.769 68.97-30.539 7.556-4.73 16.145-4.73 8.589 0 16.411 4.73 24.423 15.539 52.36 24.539 27.937 9 56.179 12.769 7.98 1 16.958 1.5 8.977.5 16.957.5 37.448 0 73.652-9.769 36.203-9.769 68.877-29.539 7.555-4.73 16.144-4.73 8.589 0 16.411 4.73 32.539 19.885 68.296 30.597 35.756 10.711 73.821 10.711h40.306q7.284 0 12.681 5.452 5.396 5.452 5.396 12.817 0 7.808-5.396 13.231-5.397 5.423-12.681 5.423h-40.206q-41.996 0-81.626-10-39.629-10-77.014-30-37.384 20-77.884 30t-80.885 10ZM241.846-517.385l218.98-70.766q9.212-2.772 19.174-2.772t19.174 2.772l218.98 70.766v-159.538q0-10.77-6.923-17.693-6.923-6.923-17.692-6.923H266.461q-10.769 0-17.692 6.923t-6.923 17.693v159.538ZM480-281.846q35.002 0 62.827-21.5 27.825-21.5 51.327-48.462 17.5-20.269 44.346-19.827 26.846.443 45 20.712 13.308 15.462 27.808 29.346 14.5 13.885 32.846 24.192l44-156.615L480-555.385 172-454l43.846 156.769q18.231-10.307 33.75-24.788 15.519-14.481 29.212-30.712 17.047-19.485 42.454-19.993 25.408-.507 42.892 18.993Q382.115-333.5 401.5-314.5q19.385 19 45 27.769 8 2.885 16.308 3.885 8.307 1 17.192 1Zm.269-136.769Z"/></svg>