<svg xmlns="http://www.w3.org/2000/svg" height="24" viewBox="0 -960 960 960" width="24"><path d="M480-352.423q-6.346 0-11.558-2.173-5.211-2.173-9.942-7.289L356.807-463.577q-5.23-4.846-5.557-12.346-.327-7.5 5.557-13.5 5.616-5.616 12.789-5.481 7.173.134 12.789 5.75l79.346 78.961v-325.384q0-7.423 5.23-12.846 5.231-5.423 13.039-5.423t13.231 5.423q5.423 5.423 5.423 12.846v325.384l78.961-78.961q5.231-5.231 12.597-5.558 7.365-.327 13.365 5.289 5.5 6 5.558 13.115.058 7.115-5.558 12.731L501.885-361.885q-5.116 5.116-10.327 7.289-5.212 2.173-11.558 2.173ZM267.692-206.154q-26 0-43.769-17.769t-17.769-43.769v-76.923q0-7.808 5.423-13.231t13.231-5.423q7.423 0 12.846 5.423t5.423 13.231v76.923q0 9.231 7.692 16.923 7.692 7.692 16.923 7.692h424.616q9.231 0 16.923-7.692 7.692-7.692 7.692-16.923v-76.923q0-7.808 5.423-13.231t13.231-5.423q7.423 0 12.846 5.423t5.423 13.231v76.923q0 26-17.769 43.769t-43.769 17.769H267.692Z"/></svg>